<svg xmlns="http://www.w3.org/2000/svg" xmlns:xlink="http://www.w3.org/1999/xlink" width="64" zoomAndPan="magnify" viewBox="0 0 48 48" height="64" preserveAspectRatio="xMidYMid meet" version="1.0"><defs><g/><clipPath id="0663c091f2"><path d="M 0.488281 0 L 47.507812 0 L 47.507812 47.019531 L 0.488281 47.019531 Z M 0.488281 0 " clip-rule="nonzero"/></clipPath><clipPath id="8fccf4d231"><path d="M 3.3125 14.074219 L 9.921875 14.074219 L 9.921875 33 L 3.3125 33 Z M 3.3125 14.074219 " clip-rule="nonzero"/></clipPath><clipPath id="ff75a26599"><path d="M 36.1875 14.074219 L 42.488281 14.074219 L 42.488281 33 L 36.1875 33 Z M 36.1875 14.074219 " clip-rule="nonzero"/></clipPath></defs><g clip-path="url(#0663c091f2)"><path fill="#ffffff" d="M 0.488281 0 L 47.511719 0 L 47.511719 47.019531 L 0.488281 47.019531 Z M 0.488281 0 " fill-opacity="1" fill-rule="nonzero"/><path fill="#ffffff" d="M 0.488281 0 L 47.511719 0 L 47.511719 47.019531 L 0.488281 47.019531 Z M 0.488281 0 " fill-opacity="1" fill-rule="nonzero"/></g><g fill="#000000" fill-opacity="1"><g transform="translate(10.281471, 36.471421)"><g><path d="M 23.5625 -20.6875 C 23.5625 -19.269531 23.28125 -18.03125 22.71875 -16.96875 C 22.15625 -15.90625 21.398438 -15.015625 20.453125 -14.296875 C 19.503906 -13.585938 18.441406 -13.023438 17.265625 -12.609375 L 25.28125 0 L 18.484375 0 L 11.59375 -11.671875 L 9 -11.671875 L 9 0 L 3.046875 0 L 3.046875 -29.40625 L 11.765625 -29.40625 C 15.660156 -29.40625 18.597656 -28.6875 20.578125 -27.25 C 22.566406 -25.8125 23.5625 -23.625 23.5625 -20.6875 Z M 17.375 -20.6875 C 17.375 -22.25 16.921875 -23.378906 16.015625 -24.078125 C 15.109375 -24.785156 13.738281 -25.140625 11.90625 -25.140625 L 9 -25.140625 L 9 -15.859375 L 12.09375 -15.859375 C 13.800781 -15.859375 15.109375 -16.238281 16.015625 -17 C 16.921875 -17.757812 17.375 -18.988281 17.375 -20.6875 Z M 17.375 -20.6875 "/></g></g></g><g clip-path="url(#8fccf4d231)"><path fill="#000000" d="M 9.671875 32.359375 C 8.847656 32.257812 7.898438 32.597656 7.140625 32.117188 C 6.40625 31.648438 6.480469 30.539062 6.515625 29.753906 C 6.59375 27.988281 6.992188 25.871094 5.84375 24.367188 C 5.570312 24.011719 5.226562 23.722656 4.839844 23.539062 C 5.089844 23.402344 5.320312 23.21875 5.519531 23.007812 C 6.105469 22.390625 6.425781 21.558594 6.550781 20.699219 C 6.695312 19.734375 6.605469 18.761719 6.539062 17.792969 C 6.503906 17.292969 6.472656 16.792969 6.496094 16.292969 C 6.511719 15.929688 6.550781 15.496094 6.789062 15.214844 C 7.066406 14.886719 7.535156 14.804688 7.929688 14.796875 C 8.460938 14.78125 8.984375 14.871094 9.511719 14.804688 C 9.71875 14.777344 9.898438 14.230469 9.605469 14.265625 C 8.777344 14.371094 7.925781 14.078125 7.128906 14.464844 C 6.367188 14.835938 6.125 15.707031 6.089844 16.53125 C 6.046875 17.535156 6.199219 18.53125 6.222656 19.535156 C 6.242188 20.417969 6.167969 21.363281 5.734375 22.136719 C 5.316406 22.886719 4.507812 23.394531 3.679688 23.273438 C 3.5 23.246094 3.308594 23.617188 3.398438 23.761719 C 3.402344 23.847656 3.445312 23.90625 3.546875 23.890625 C 4.296875 23.78125 5.03125 24.214844 5.496094 24.820312 C 6.027344 25.519531 6.207031 26.441406 6.234375 27.320312 C 6.269531 28.304688 6.125 29.28125 6.101562 30.265625 C 6.082031 31.058594 6.09375 32.050781 6.765625 32.566406 C 7.550781 33.171875 8.59375 32.792969 9.476562 32.90625 C 9.695312 32.933594 9.921875 32.390625 9.671875 32.359375 Z M 9.671875 32.359375 " fill-opacity="1" fill-rule="nonzero"/></g><g clip-path="url(#ff75a26599)"><path fill="#000000" d="M 36.4375 32.359375 C 37.261719 32.257812 38.214844 32.597656 38.96875 32.117188 C 39.703125 31.648438 39.628906 30.539062 39.59375 29.753906 C 39.519531 27.988281 39.117188 25.871094 40.265625 24.367188 C 40.539062 24.011719 40.886719 23.722656 41.273438 23.539062 C 41.023438 23.402344 40.792969 23.21875 40.59375 23.007812 C 40.007812 22.390625 39.683594 21.558594 39.558594 20.699219 C 39.414062 19.734375 39.507812 18.761719 39.574219 17.792969 C 39.609375 17.292969 39.636719 16.792969 39.617188 16.292969 C 39.601562 15.929688 39.558594 15.496094 39.320312 15.214844 C 39.046875 14.886719 38.574219 14.804688 38.179688 14.796875 C 37.652344 14.78125 37.128906 14.871094 36.597656 14.804688 C 36.390625 14.777344 36.214844 14.230469 36.503906 14.265625 C 37.332031 14.371094 38.1875 14.078125 38.980469 14.464844 C 39.742188 14.835938 39.988281 15.707031 40.023438 16.53125 C 40.0625 17.535156 39.914062 18.53125 39.890625 19.535156 C 39.867188 20.417969 39.941406 21.363281 40.375 22.136719 C 40.792969 22.886719 41.601562 23.394531 42.433594 23.273438 C 42.613281 23.246094 42.800781 23.617188 42.714844 23.761719 C 42.707031 23.847656 42.664062 23.90625 42.5625 23.890625 C 41.8125 23.78125 41.078125 24.214844 40.617188 24.820312 C 40.082031 25.519531 39.90625 26.441406 39.875 27.320312 C 39.84375 28.304688 39.988281 29.28125 40.011719 30.265625 C 40.027344 31.058594 40.015625 32.050781 39.34375 32.566406 C 38.558594 33.171875 37.519531 32.792969 36.632812 32.90625 C 36.417969 32.933594 36.191406 32.390625 36.4375 32.359375 Z M 36.4375 32.359375 " fill-opacity="1" fill-rule="nonzero"/></g></svg>